# xmcd
#
# Track frame offsets:
#	150
#	10736
#	22721
#	36972
#	49966
#	60615
#	81153
#	96156
#	109573
#	119601
#
# Disc length: 1810 seconds
#
# Revision: 1
# Processed by: cddbd v1.5.2PL0 Copyright (c) Steve Scherf et al.
# Submitted via: audiograbber 1.83.01
#
DISCID=7607100a
DTITLE=Keitzer - Descent into heresy
DYEAR=2011
DGENRE=Death Metal
TTITLE0=Descend into heresy
TTITLE1=The fallen
TTITLE2=Redemption
TTITLE3=Gifts of doom
TTITLE4=Betrayal and desolation
TTITLE5=Wrath
TTITLE6=Chains
TTITLE7=Circles
TTITLE8=Rock 'n' Roll damnation
TTITLE9=Your last days
EXTD=
EXTT0=
EXTT1=
EXTT2=
EXTT3=
EXTT4=
EXTT5=
EXTT6=
EXTT7=
EXTT8=
EXTT9=
PLAYORDER=
